HIERARCHY
ROOT Hips
{
	OFFSET -36.944443 85.833214 53.796978
	CHANNELS 6 Xposition Yposition Zposition Zrotation Yrotation Xrotation 
	JOINT Spine
	{
		OFFSET -0.000000 8.814246 -2.080107
		CHANNELS 3 Zrotation Yrotation Xrotation
		JOINT Spine1
		{
			OFFSET -0.000000 8.844141 0.000000
			CHANNELS 3 Zrotation Yrotation Xrotation
			JOINT Spine2
			{
				OFFSET 0.000000 11.682268 0.000000
				CHANNELS 3 Zrotation Yrotation Xrotation
				JOINT Spine3
				{
					OFFSET 0.000000 11.746700 0.000000
					CHANNELS 3 Zrotation Yrotation Xrotation
					JOINT Neck
					{
						OFFSET -0.000000 17.658264 -0.000000
						CHANNELS 3 Zrotation Yrotation Xrotation
						JOINT Neck1
						{
							OFFSET 0.000000 5.101515 0.000000
							CHANNELS 3 Zrotation Yrotation Xrotation
							JOINT Head
							{
								OFFSET 0.000000 5.101515 0.000000
								CHANNELS 3 Zrotation Yrotation Xrotation
								JOINT HeadEnd
								{
									OFFSET 0.000000 11.655085 -0.000000
									CHANNELS 3 Zrotation Yrotation Xrotation
									End Site
									{
										OFFSET 0.000000 0.000000 0.000000
									}
								}
							}
						}
					}
					JOINT RightShoulder
					{
						OFFSET -2.625389 11.175210 -0.000000
						CHANNELS 3 Zrotation Yrotation Xrotation
						JOINT RightArm
						{
							OFFSET -0.000000 10.434715 -0.000000
							CHANNELS 3 Zrotation Yrotation Xrotation
							JOINT RightForeArm
							{
								OFFSET 0.000000 29.628420 0.000000
								CHANNELS 3 Zrotation Yrotation Xrotation
								JOINT RightHand
								{
									OFFSET -0.000000 22.857611 -0.000000
									CHANNELS 3 Zrotation Yrotation Xrotation
									JOINT RightHandThumb1
									{
										OFFSET -2.867323 3.959563 2.944291
										CHANNELS 3 Zrotation Yrotation Xrotation
										JOINT RightHandThumb2
										{
											OFFSET 0.000000 3.350399 0.000000
											CHANNELS 3 Zrotation Yrotation Xrotation
											JOINT RightHandThumb3
											{
												OFFSET 0.000000 3.756509 -0.000000
												CHANNELS 3 Zrotation Yrotation Xrotation
												JOINT RightHandThumb4
												{
													OFFSET 0.000000 3.147345 0.000000
													CHANNELS 3 Zrotation Yrotation Xrotation
													End Site
													{
														OFFSET 0.000000 0.000000 0.000000
													}
												}
											}
										}
									}
									JOINT RightHandIndex1
									{
										OFFSET -0.086752 10.030893 2.345280
										CHANNELS 3 Zrotation Yrotation Xrotation
										JOINT RightHandIndex2
										{
											OFFSET 0.000000 4.061090 0.000000
											CHANNELS 3 Zrotation Yrotation Xrotation
											JOINT RightHandIndex3
											{
												OFFSET 0.000000 3.248873 0.000000
												CHANNELS 3 Zrotation Yrotation Xrotation
												JOINT RightHandIndex4
												{
													OFFSET 0.000000 2.639709 0.000000
													CHANNELS 3 Zrotation Yrotation Xrotation
													End Site
													{
														OFFSET 0.000000 0.000000 0.000000
													}
												}
											}
										}
									}
									JOINT RightHandMiddle1
									{
										OFFSET 0.104102 9.502952 0.006768
										CHANNELS 3 Zrotation Yrotation Xrotation
										JOINT RightHandMiddle2
										{
											OFFSET 0.000000 4.568727 0.000000
											CHANNELS 3 Zrotation Yrotation Xrotation
											JOINT RightHandMiddle3
											{
												OFFSET -0.000000 3.654981 -0.000000
												CHANNELS 3 Zrotation Yrotation Xrotation
												JOINT RightHandMiddle4
												{
													OFFSET 0.000000 2.741236 0.000000
													CHANNELS 3 Zrotation Yrotation Xrotation
													End Site
													{
														OFFSET 0.000000 0.000000 0.000000
													}
												}
											}
										}
									}
									JOINT RightHandRing1
									{
										OFFSET 0.086752 8.921708 -2.267442
										CHANNELS 3 Zrotation Yrotation Xrotation
										JOINT RightHandRing2
										{
											OFFSET -0.000000 4.061090 0.000000
											CHANNELS 3 Zrotation Yrotation Xrotation
											JOINT RightHandRing3
											{
												OFFSET -0.000000 3.654981 -0.000000
												CHANNELS 3 Zrotation Yrotation Xrotation
												JOINT RightHandRing4
												{
													OFFSET 0.000000 2.741236 0.000000
													CHANNELS 3 Zrotation Yrotation Xrotation
													End Site
													{
														OFFSET 0.000000 0.000000 0.000000
													}
												}
											}
										}
									}
									JOINT RightHandPinky1
									{
										OFFSET -0.173504 7.976997 -4.467199
										CHANNELS 3 Zrotation Yrotation Xrotation
										JOINT RightHandPinky2
										{
											OFFSET 0.000000 3.350399 0.000000
											CHANNELS 3 Zrotation Yrotation Xrotation
											JOINT RightHandPinky3
											{
												OFFSET 0.000000 2.842763 0.000000
												CHANNELS 3 Zrotation Yrotation Xrotation
												JOINT RightHandPinky4
												{
													OFFSET 0.000000 2.639709 0.000000
													CHANNELS 3 Zrotation Yrotation Xrotation
													End Site
													{
														OFFSET 0.000000 0.000000 0.000000
													}
												}
											}
										}
									}
									JOINT RightForeArmEnd
									{
										OFFSET 0.000000 0.000000 0.000000
										CHANNELS 3 Zrotation Yrotation Xrotation
										End Site
										{
											OFFSET 0.000000 0.000000 0.000000
										}
									}
								}
								JOINT RightArmEnd
								{
									OFFSET 0.000000 0.000000 0.000000
									CHANNELS 3 Zrotation Yrotation Xrotation
									End Site
									{
										OFFSET 0.000000 0.000000 0.000000
									}
								}
							}
						}
					}
					JOINT LeftShoulder
					{
						OFFSET 2.625389 11.175210 -0.000000
						CHANNELS 3 Zrotation Yrotation Xrotation
						JOINT LeftArm
						{
							OFFSET 0.000000 10.813635 0.000000
							CHANNELS 3 Zrotation Yrotation Xrotation
							JOINT LeftForeArm
							{
								OFFSET 0.000000 28.724781 -0.000000
								CHANNELS 3 Zrotation Yrotation Xrotation
								JOINT LeftHand
								{
									OFFSET 0.644384 25.716167 -0.328871
									CHANNELS 3 Zrotation Yrotation Xrotation
									JOINT LeftHandThumb1
									{
										OFFSET 2.867323 3.959563 2.944291
										CHANNELS 3 Zrotation Yrotation Xrotation
										JOINT LeftHandThumb2
										{
											OFFSET -0.000000 3.350399 -0.000000
											CHANNELS 3 Zrotation Yrotation Xrotation
											JOINT LeftHandThumb3
											{
												OFFSET 0.000000 3.756509 -0.000000
												CHANNELS 3 Zrotation Yrotation Xrotation
												JOINT LeftHandThumb4
												{
													OFFSET 0.000000 3.100000 -0.000000
													CHANNELS 3 Zrotation Yrotation Xrotation
													End Site
													{
														OFFSET 0.000000 0.000000 0.000000
													}
												}
											}
										}
									}
									JOINT LeftHandIndex1
									{
										OFFSET 0.086752 10.030893 2.345280
										CHANNELS 3 Zrotation Yrotation Xrotation
										JOINT LeftHandIndex2
										{
											OFFSET -0.000000 4.061090 0.000000
											CHANNELS 3 Zrotation Yrotation Xrotation
											JOINT LeftHandIndex3
											{
												OFFSET -0.000000 3.248873 0.000000
												CHANNELS 3 Zrotation Yrotation Xrotation
												JOINT LeftHandIndex4
												{
													OFFSET 0.000000 2.639709 -0.000000
													CHANNELS 3 Zrotation Yrotation Xrotation
													End Site
													{
														OFFSET 0.000000 0.000000 0.000000
													}
												}
											}
										}
									}
									JOINT LeftHandMiddle1
									{
										OFFSET -0.104102 9.502952 0.006768
										CHANNELS 3 Zrotation Yrotation Xrotation
										JOINT LeftHandMiddle2
										{
											OFFSET -0.000000 4.568727 0.000000
											CHANNELS 3 Zrotation Yrotation Xrotation
											JOINT LeftHandMiddle3
											{
												OFFSET 0.000000 3.654981 -0.000000
												CHANNELS 3 Zrotation Yrotation Xrotation
												JOINT LeftHandMiddle4
												{
													OFFSET -0.000000 2.741236 0.000000
													CHANNELS 3 Zrotation Yrotation Xrotation
													End Site
													{
														OFFSET 0.000000 0.000000 0.000000
													}
												}
											}
										}
									}
									JOINT LeftHandRing1
									{
										OFFSET -0.086752 8.921708 -2.267442
										CHANNELS 3 Zrotation Yrotation Xrotation
										JOINT LeftHandRing2
										{
											OFFSET -0.000000 4.061090 0.000000
											CHANNELS 3 Zrotation Yrotation Xrotation
											JOINT LeftHandRing3
											{
												OFFSET 0.000000 3.654981 -0.000000
												CHANNELS 3 Zrotation Yrotation Xrotation
												JOINT LeftHandRing4
												{
													OFFSET 0.000000 2.741236 -0.000000
													CHANNELS 3 Zrotation Yrotation Xrotation
													End Site
													{
														OFFSET 0.000000 0.000000 0.000000
													}
												}
											}
										}
									}
									JOINT LeftHandPinky1
									{
										OFFSET 0.173504 7.976997 -4.467199
										CHANNELS 3 Zrotation Yrotation Xrotation
										JOINT LeftHandPinky2
										{
											OFFSET 0.000000 3.350399 0.000000
											CHANNELS 3 Zrotation Yrotation Xrotation
											JOINT LeftHandPinky3
											{
												OFFSET -0.000000 2.842763 0.000000
												CHANNELS 3 Zrotation Yrotation Xrotation
												JOINT LeftHandPinky4
												{
													OFFSET 0.000000 2.639709 -0.000000
													CHANNELS 3 Zrotation Yrotation Xrotation
													End Site
													{
														OFFSET 0.000000 0.000000 0.000000
													}
												}
											}
										}
									}
									JOINT LeftForeArmEnd
									{
										OFFSET 0.000000 0.000000 0.000000
										CHANNELS 3 Zrotation Yrotation Xrotation
										End Site
										{
											OFFSET 0.000000 0.000000 0.000000
										}
									}
								}
								JOINT LeftArmEnd
								{
									OFFSET 0.000000 0.000000 0.000000
									CHANNELS 3 Zrotation Yrotation Xrotation
									End Site
									{
										OFFSET 0.000000 0.000000 0.000000
									}
								}
							}
						}
					}
				}
			}
		}
	}
	JOINT RightUpLeg
	{
		OFFSET -11.289943 0.000000 -0.000000
		CHANNELS 3 Zrotation Yrotation Xrotation
		JOINT RightLeg
		{
			OFFSET 0.000000 -38.200325 0.000000
			CHANNELS 3 Zrotation Yrotation Xrotation
			JOINT RightFoot
			{
				OFFSET -0.000000 -39.900856 0.000000
				CHANNELS 3 Zrotation Yrotation Xrotation
				JOINT RightToeBase
				{
					OFFSET -0.000000 -0.000000 15.261641
					CHANNELS 3 Zrotation Yrotation Xrotation
					JOINT RightToeBaseEnd
					{
						OFFSET -0.000000 0.000000 7.370709
						CHANNELS 3 Zrotation Yrotation Xrotation
						End Site
						{
							OFFSET 0.000000 0.000000 0.000000
						}
					}
				}
				JOINT RightLegEnd
				{
					OFFSET 0.000000 0.000000 0.000000
					CHANNELS 3 Zrotation Yrotation Xrotation
					End Site
					{
						OFFSET 0.000000 0.000000 0.000000
					}
				}
			}
			JOINT RightUpLegEnd
			{
				OFFSET 0.000000 0.000000 0.000000
				CHANNELS 3 Zrotation Yrotation Xrotation
				End Site
				{
					OFFSET 0.000000 0.000000 0.000000
				}
			}
		}
	}
	JOINT LeftUpLeg
	{
		OFFSET 11.315661 0.000000 -0.000000
		CHANNELS 3 Zrotation Yrotation Xrotation
		JOINT LeftLeg
		{
			OFFSET -0.000000 -38.200325 0.000000
			CHANNELS 3 Zrotation Yrotation Xrotation
			JOINT LeftFoot
			{
				OFFSET 0.000000 -39.900856 0.000000
				CHANNELS 3 Zrotation Yrotation Xrotation
				JOINT LeftToeBase
				{
					OFFSET -0.000000 -0.000000 15.261641
					CHANNELS 3 Zrotation Yrotation Xrotation
					JOINT LeftToeBaseEnd
					{
						OFFSET 0.000000 -0.000000 7.539996
						CHANNELS 3 Zrotation Yrotation Xrotation
						End Site
						{
							OFFSET 0.000000 0.000000 0.000000
						}
					}
				}
				JOINT LeftLegEnd
				{
					OFFSET 0.000000 0.000000 0.000000
					CHANNELS 3 Zrotation Yrotation Xrotation
					End Site
					{
						OFFSET 0.000000 0.000000 0.000000
					}
				}
			}
			JOINT LeftUpLegEnd
			{
				OFFSET 0.000000 0.000000 0.000000
				CHANNELS 3 Zrotation Yrotation Xrotation
				End Site
				{
					OFFSET 0.000000 0.000000 0.000000
				}
			}
		}
	}
}
MOTION
Frames: 5
Frame Time: 0.016667
-36.944443 85.833214 53.796978 -6.411496 15.897053 -15.533233 3.018554 -0.360871 6.714230 2.427185 -0.903024 2.614339 4.502287 -5.174187 11.058397 -0.173058 -1.266249 1.930472 4.031034 6.309027 14.792562 -3.639724 5.206615 -5.053644 -2.545155 2.867770 -23.502382 0.000000 -0.000000 0.000000 92.345421 -0.182551 3.695521 63.792946 -20.477221 -4.422002 2.643076 28.277489 100.450989 6.198730 53.781494 14.233704 16.637403 -2.084624 37.370129 -0.000000 0.000000 -40.320000 0.000000 0.000000 -28.000000 -0.000000 -0.000000 0.000000 43.983746 -0.000000 -7.673460 30.788624 -0.000000 -0.000000 30.788624 0.000000 -0.000000 -0.000000 -0.000000 0.000000 47.120193 -0.000000 -7.909895 32.984135 0.000000 -0.000000 32.984135 0.000000 -0.000000 0.000000 -0.000000 -0.000000 57.209000 -0.000000 -5.670899 40.046299 -0.000000 -0.000000 40.046299 -0.000000 -0.000000 -0.000000 -0.000000 -0.000000 64.555222 -0.000000 -4.418365 45.188656 -0.000000 0.000000 45.188656 0.000000 -0.000000 -0.000000 0.000000 0.000000 0.000000 0.000000 0.000000 -0.000000 -0.000000 0.000000 -92.509544 0.324564 5.972021 -54.727871 25.258734 10.098443 -2.120338 -21.825171 109.108597 18.204138 -7.656189 11.912321 -11.835789 1.931521 39.346298 0.000000 0.000000 -28.799999 -0.000000 0.000000 -20.000000 0.000000 -0.000000 -0.000000 -25.590830 -0.000000 -12.852389 -17.913580 0.000000 0.000000 -17.913580 -0.000000 0.000000 -0.000000 0.000000 -0.000000 -27.659632 -0.000000 -13.744453 -19.361742 -0.000000 0.000000 -19.361742 0.000000 0.000000 0.000000 0.000000 -0.000000 -33.318123 -0.000000 -13.608135 -23.322685 0.000000 0.000000 -23.322685 0.000000 -0.000000 0.000000 -0.000000 -0.000000 -37.198235 0.000000 -13.744473 -26.038765 -0.000000 -0.000000 -26.038765 0.000000 0.000000 -0.000000 -0.000000 -0.000000 -0.000000 0.000000 -0.000000 -0.000000 -0.000000 -0.000000 6.785093 -6.747483 15.920090 -0.123297 -0.551259 12.597735 -5.848794 -13.331475 13.803271 -0.298662 -0.856729 -27.901491 -0.000000 -0.000000 -0.000000 0.000000 0.000000 0.000000 0.000000 -0.000000 0.000000 21.804352 8.358626 16.180286 0.697251 1.706205 22.227774 -8.711055 2.000049 10.007907 0.733714 1.129844 -28.840649 0.000000 0.000000 -0.000000 0.000000 0.000000 -0.000000 0.000000 0.000000 0.000000 
-37.020203 85.832848 53.825638 -6.417462 15.719845 -15.474479 3.057235 -0.379295 6.707156 2.426282 -0.902626 2.629142 4.510194 -5.211776 11.033146 -0.172994 -1.275422 1.941504 4.000677 6.329953 14.777513 -3.624586 5.252931 -5.075531 -2.554754 2.867627 -23.569403 -0.000000 -0.000000 0.000000 92.322098 -0.180930 3.697127 63.810303 -20.417048 -4.445329 2.641892 28.251278 100.430969 6.231049 53.812561 14.254059 16.637403 -2.084624 37.370129 0.000000 -0.000000 -40.320000 0.000000 -0.000000 -28.000000 -0.000000 0.000000 -0.000000 43.989029 -0.000000 -7.637711 30.792320 -0.000000 -0.000000 30.792320 -0.000000 0.000000 0.000000 -0.000000 -0.000000 47.117809 -0.000000 -7.884939 32.982464 0.000000 0.000000 32.982464 -0.000000 0.000000 -0.000000 -0.000000 -0.000000 57.183674 -0.000000 -5.660030 40.028572 -0.000000 -0.000000 40.028572 0.000000 0.000000 -0.000000 -0.000000 0.000000 64.510887 -0.000000 -4.404603 45.157623 -0.000000 0.000000 45.157623 0.000000 -0.000000 -0.000000 0.000000 -0.000000 0.000000 0.000000 0.000000 -0.000000 -0.000000 0.000000 -92.487686 0.323887 6.014515 -54.350216 24.997513 10.568992 -2.114638 -21.699495 108.985779 18.400366 -6.946856 11.965981 -11.536112 1.910869 39.476410 0.000000 0.000000 -28.080000 0.000000 -0.000000 -19.500000 0.000000 -0.000000 0.000000 -24.556185 0.000000 -12.457645 -17.189329 0.000000 0.000000 -17.189329 0.000000 0.000000 -0.000000 0.000000 0.000000 -26.598190 0.000000 -13.500203 -18.618732 0.000000 0.000000 -18.618732 -0.000000 0.000000 0.000000 0.000000 -0.000000 -32.106480 0.000000 -13.609344 -22.474535 -0.000000 0.000000 -22.474535 -0.000000 0.000000 0.000000 0.000000 0.000000 -35.890572 0.000000 -13.976874 -25.123400 -0.000000 -0.000000 -25.123400 -0.000000 0.000000 -0.000000 0.000000 -0.000000 -0.000000 0.000000 -0.000000 -0.000000 -0.000000 -0.000000 6.882856 -6.636353 15.857927 -0.122141 -0.546135 12.599912 -5.917114 -13.297966 13.821313 -0.297167 -0.857981 -27.900879 -0.000000 -0.000000 -0.000000 0.000000 0.000000 0.000000 -0.000000 0.000000 -0.000000 21.861557 8.380081 16.084326 0.702687 1.703193 22.423681 -8.816015 2.095142 10.079509 0.728198 1.144016 -28.920067 -0.000000 -0.000000 -0.000000 0.000000 0.000000 -0.000000 0.000000 -0.000000 -0.000000 
-37.098621 85.832169 53.853935 -6.424523 15.545736 -15.414238 3.093427 -0.397895 6.696498 2.429765 -0.902479 2.650723 4.522998 -5.248293 11.002725 -0.172711 -1.285408 1.950945 3.969440 6.359857 14.768103 -3.610563 5.300818 -5.095909 -2.569603 2.867657 -23.653492 0.000000 -0.000000 0.000000 92.299171 -0.179507 3.703323 63.830254 -20.346375 -4.468851 2.640845 28.217834 100.413620 6.170471 53.811378 14.173157 16.637403 -2.084624 37.370129 0.000000 -0.000000 -40.320000 0.000000 0.000000 -28.000000 -0.000000 -0.000000 0.000000 44.044338 -0.000000 -7.546517 30.831036 -0.000000 0.000000 30.831036 0.000000 0.000000 -0.000000 0.000000 0.000000 47.168724 -0.000000 -7.805480 33.018108 -0.000000 -0.000000 33.018108 -0.000000 0.000000 -0.000000 0.000000 0.000000 57.212940 -0.000000 -5.594198 40.049061 -0.000000 0.000000 40.049061 -0.000000 0.000000 -0.000000 -0.000000 0.000000 64.513702 -0.000000 -4.338021 45.159588 0.000000 -0.000000 45.159588 -0.000000 0.000000 0.000000 0.000000 -0.000000 0.000000 0.000000 -0.000000 -0.000000 -0.000000 0.000000 -92.462090 0.323299 6.071244 -53.937843 24.735765 11.050559 -2.109496 -21.584351 108.879051 18.633883 -6.030210 11.956430 -11.236528 1.888869 39.607235 0.000000 -0.000000 -27.360001 0.000000 0.000000 -19.000000 -0.000000 -0.000000 0.000000 -23.453318 -0.000000 -11.968804 -16.417322 -0.000000 -0.000000 -16.417322 0.000000 -0.000000 -0.000000 0.000000 0.000000 -25.403206 -0.000000 -13.184206 -17.782244 -0.000000 -0.000000 -17.782244 -0.000000 -0.000000 -0.000000 -0.000000 -0.000000 -30.596842 -0.000000 -13.580474 -21.417789 0.000000 -0.000000 -21.417789 0.000000 0.000000 -0.000000 0.000000 0.000000 -34.126694 -0.000000 -14.188009 -23.888687 -0.000000 -0.000000 -23.888687 0.000000 -0.000000 -0.000000 0.000000 -0.000000 -0.000000 -0.000000 -0.000000 -0.000000 -0.000000 -0.000000 6.985140 -6.522151 15.793036 -0.121008 -0.540928 12.602081 -5.987047 -13.273439 13.839695 -0.295842 -0.859374 -27.900501 -0.000000 -0.000000 -0.000000 0.000000 -0.000000 0.000000 0.000000 -0.000000 0.000000 21.921263 8.400349 15.980068 0.708261 1.699325 22.627474 -8.923164 2.187345 10.153633 0.722443 1.158137 -29.000288 0.000000 0.000000 -0.000000 0.000000 0.000000 -0.000000 0.000000 0.000000 0.000000 
-37.179729 85.831215 53.882889 -6.430091 15.373547 -15.356838 3.130163 -0.414048 6.689325 2.442922 -0.902554 2.673995 4.540021 -5.279519 10.969028 -0.171901 -1.293344 1.955219 3.925938 6.397179 14.766591 -3.593859 5.341580 -5.113750 -2.581450 2.867994 -23.757292 -0.000000 -0.000000 0.000000 92.267288 -0.177832 3.718226 63.864845 -20.274471 -4.511633 2.640451 28.194141 100.400780 6.042847 53.783859 14.022644 16.637403 -2.084624 37.370129 -0.000000 -0.000000 -40.320000 -0.000000 0.000000 -28.000000 0.000000 -0.000000 -0.000000 44.129280 -0.000000 -7.417586 30.890497 -0.000000 -0.000000 30.890497 0.000000 -0.000000 0.000000 0.000000 -0.000000 47.254578 -0.000000 -7.689950 33.078205 -0.000000 -0.000000 33.078205 -0.000000 0.000000 0.000000 -0.000000 -0.000000 57.283604 -0.000000 -5.494066 40.098522 -0.000000 0.000000 40.098522 0.000000 0.000000 0.000000 -0.000000 -0.000000 64.555275 -0.000000 -4.244307 45.188694 -0.000000 0.000000 45.188694 0.000000 0.000000 -0.000000 -0.000000 0.000000 0.000000 0.000000 -0.000000 -0.000000 -0.000000 0.000000 -92.441101 0.323584 6.140386 -53.481525 24.457691 11.556434 -2.104625 -21.468803 108.797028 18.849331 -4.772330 11.840485 -10.937045 1.865515 39.738766 -0.000000 -0.000000 -26.639999 0.000000 0.000000 -18.500000 -0.000000 -0.000000 0.000000 -21.880722 -0.000000 -11.426612 -15.316505 0.000000 0.000000 -15.316505 0.000000 -0.000000 -0.000000 0.000000 -0.000000 -23.735384 -0.000000 -12.836347 -16.614769 -0.000000 0.000000 -16.614769 -0.000000 0.000000 0.000000 0.000000 0.000000 -28.578209 -0.000000 -13.620187 -20.004745 0.000000 -0.000000 -20.004745 0.000000 0.000000 -0.000000 -0.000000 -0.000000 -31.825579 -0.000000 -14.586736 -22.277905 -0.000000 -0.000000 -22.277905 -0.000000 0.000000 -0.000000 0.000000 0.000000 -0.000000 -0.000000 -0.000000 -0.000000 -0.000000 -0.000000 7.089344 -6.403473 15.732544 -0.119907 -0.536260 12.604252 -6.057759 -13.253495 13.857710 -0.294669 -0.860970 -27.900431 -0.000000 -0.000000 -0.000000 0.000000 0.000000 0.000000 -0.000000 0.000000 -0.000000 21.985786 8.425422 15.879137 0.713536 1.695085 22.829397 -9.030984 2.270770 10.233595 0.716486 1.172057 -29.080328 0.000000 0.000000 -0.000000 0.000000 0.000000 -0.000000 0.000000 0.000000 -0.000000 
-37.263687 85.831566 53.910583 -6.432742 15.207258 -15.301056 3.164082 -0.430791 6.675509 2.444826 -0.902823 2.705693 4.569310 -5.313661 10.938444 -0.170255 -1.302783 1.966742 3.864877 6.445626 14.765085 -3.578836 5.380825 -5.136510 -2.593226 2.868573 -23.881964 0.000000 -0.000000 0.000000 92.228127 -0.175711 3.734607 63.897293 -20.196482 -4.544268 2.640701 28.175957 100.380974 5.948975 53.757294 13.896362 16.637403 -2.084624 37.370129 0.000000 -0.000000 -40.320000 -0.000000 0.000000 -28.000000 -0.000000 0.000000 -0.000000 44.194294 0.000000 -7.310507 30.936007 0.000000 0.000000 30.936007 -0.000000 0.000000 -0.000000 0.000000 0.000000 47.320637 0.000000 -7.599576 33.124443 -0.000000 -0.000000 33.124443 0.000000 -0.000000 -0.000000 -0.000000 0.000000 57.338097 0.000000 -5.426127 40.136669 -0.000000 0.000000 40.136669 0.000000 0.000000 -0.000000 -0.000000 -0.000000 64.590424 0.000000 -4.191622 45.213299 0.000000 -0.000000 45.213299 -0.000000 -0.000000 -0.000000 -0.000000 -0.000000 0.000000 0.000000 0.000000 -0.000000 -0.000000 0.000000 -92.426308 0.324880 6.221091 -52.924431 24.271225 12.137156 -2.108400 -21.466904 108.686325 19.112034 -2.892678 11.732656 -10.637672 1.840801 39.870987 0.000000 -0.000000 -25.920000 0.000000 0.000000 -18.000000 -0.000000 -0.000000 0.000000 -20.066887 -0.000000 -10.646419 -14.046822 -0.000000 -0.000000 -14.046822 -0.000000 0.000000 0.000000 0.000000 -0.000000 -21.820641 -0.000000 -12.295197 -15.274449 0.000000 0.000000 -15.274449 -0.000000 -0.000000 0.000000 -0.000000 -0.000000 -26.281622 -0.000000 -13.499053 -18.397137 0.000000 0.000000 -18.397137 -0.000000 0.000000 -0.000000 -0.000000 -0.000000 -29.223402 -0.000000 -14.834591 -20.456381 0.000000 -0.000000 -20.456381 -0.000000 0.000000 -0.000000 0.000000 0.000000 -0.000000 0.000000 -0.000000 -0.000000 -0.000000 -0.000000 7.192888 -6.283653 15.672750 -0.118883 -0.531632 12.606399 -6.129015 -13.237295 13.879262 -0.293630 -0.862828 -27.900980 -0.000000 -0.000000 -0.000000 0.000000 0.000000 0.000000 0.000000 -0.000000 0.000000 22.048277 8.445973 15.771926 0.718811 1.690586 23.038128 -9.140180 2.351043 10.325429 0.710010 1.186592 -29.169622 0.000000 0.000000 -0.000000 0.000000 0.000000 -0.000000 0.000000 0.000000 -0.000000 
